<svg xmlns="http://www.w3.org/2000/svg" xmlns:xlink="http://www.w3.org/1999/xlink" width="500" zoomAndPan="magnify" viewBox="0 0 375 374.999991" height="500" preserveAspectRatio="xMidYMid meet" version="1.0"><defs><g/></defs><g fill="#ff00ff" fill-opacity="1"><g transform="translate(56.169926, 322.95998)"><g><path d="M 150.75 0 L 32.546875 0 C 27.804688 0 24.375 -1.054688 22.25 -3.171875 C 20.132812 -5.296875 19.078125 -8.726562 19.078125 -13.46875 L 19.078125 -57.234375 C 19.078125 -61.972656 20.132812 -65.398438 22.25 -67.515625 C 24.375 -69.640625 27.804688 -70.703125 32.546875 -70.703125 L 133.171875 -70.703125 C 136.410156 -70.703125 138.835938 -71.757812 140.453125 -73.875 C 142.078125 -76 142.890625 -78.554688 142.890625 -81.546875 C 142.890625 -85.785156 142.078125 -88.898438 140.453125 -90.890625 C 138.835938 -92.890625 136.410156 -94.015625 133.171875 -94.265625 L 77.0625 -102.125 C 59.601562 -104.613281 45.570312 -110.347656 34.96875 -119.328125 C 24.375 -128.304688 19.078125 -143.269531 19.078125 -164.21875 L 19.078125 -203.484375 C 19.078125 -224.679688 25.929688 -240.953125 39.640625 -252.296875 C 53.359375 -263.648438 72.316406 -269.328125 96.515625 -269.328125 L 201.25 -269.328125 C 205.988281 -269.328125 209.414062 -268.265625 211.53125 -266.140625 C 213.65625 -264.023438 214.71875 -260.597656 214.71875 -255.859375 L 214.71875 -211.34375 C 214.71875 -206.601562 213.65625 -203.171875 211.53125 -201.046875 C 209.414062 -198.929688 205.988281 -197.875 201.25 -197.875 L 114.09375 -197.875 C 110.84375 -197.875 108.34375 -196.8125 106.59375 -194.6875 C 104.851562 -192.570312 103.984375 -189.894531 103.984375 -186.65625 C 103.984375 -183.414062 104.851562 -180.671875 106.59375 -178.421875 C 108.34375 -176.179688 110.84375 -174.9375 114.09375 -174.6875 L 169.828125 -167.203125 C 187.285156 -164.710938 201.375 -158.976562 212.09375 -150 C 222.8125 -141.019531 228.171875 -126.054688 228.171875 -105.109375 L 228.171875 -65.828125 C 228.171875 -44.640625 221.25 -28.367188 207.40625 -17.015625 C 193.570312 -5.671875 174.6875 0 150.75 0 Z M 150.75 0 "/></g></g></g><g fill="#00ffff" fill-opacity="1"><g transform="translate(75.662225, 304.783124)"><g><path d="M 150.75 0 L 32.546875 0 C 27.804688 0 24.375 -1.054688 22.25 -3.171875 C 20.132812 -5.296875 19.078125 -8.726562 19.078125 -13.46875 L 19.078125 -57.234375 C 19.078125 -61.972656 20.132812 -65.398438 22.25 -67.515625 C 24.375 -69.640625 27.804688 -70.703125 32.546875 -70.703125 L 133.171875 -70.703125 C 136.410156 -70.703125 138.835938 -71.757812 140.453125 -73.875 C 142.078125 -76 142.890625 -78.554688 142.890625 -81.546875 C 142.890625 -85.785156 142.078125 -88.898438 140.453125 -90.890625 C 138.835938 -92.890625 136.410156 -94.015625 133.171875 -94.265625 L 77.0625 -102.125 C 59.601562 -104.613281 45.570312 -110.347656 34.96875 -119.328125 C 24.375 -128.304688 19.078125 -143.269531 19.078125 -164.21875 L 19.078125 -203.484375 C 19.078125 -224.679688 25.929688 -240.953125 39.640625 -252.296875 C 53.359375 -263.648438 72.316406 -269.328125 96.515625 -269.328125 L 201.25 -269.328125 C 205.988281 -269.328125 209.414062 -268.265625 211.53125 -266.140625 C 213.65625 -264.023438 214.71875 -260.597656 214.71875 -255.859375 L 214.71875 -211.34375 C 214.71875 -206.601562 213.65625 -203.171875 211.53125 -201.046875 C 209.414062 -198.929688 205.988281 -197.875 201.25 -197.875 L 114.09375 -197.875 C 110.84375 -197.875 108.34375 -196.8125 106.59375 -194.6875 C 104.851562 -192.570312 103.984375 -189.894531 103.984375 -186.65625 C 103.984375 -183.414062 104.851562 -180.671875 106.59375 -178.421875 C 108.34375 -176.179688 110.84375 -174.9375 114.09375 -174.6875 L 169.828125 -167.203125 C 187.285156 -164.710938 201.375 -158.976562 212.09375 -150 C 222.8125 -141.019531 228.171875 -126.054688 228.171875 -105.109375 L 228.171875 -65.828125 C 228.171875 -44.640625 221.25 -28.367188 207.40625 -17.015625 C 193.570312 -5.671875 174.6875 0 150.75 0 Z M 150.75 0 "/></g></g></g><g fill="#7843e6" fill-opacity="1"><g transform="translate(65.91608, 313.871552)"><g><path d="M 150.75 0 L 32.546875 0 C 27.804688 0 24.375 -1.054688 22.25 -3.171875 C 20.132812 -5.296875 19.078125 -8.726562 19.078125 -13.46875 L 19.078125 -57.234375 C 19.078125 -61.972656 20.132812 -65.398438 22.25 -67.515625 C 24.375 -69.640625 27.804688 -70.703125 32.546875 -70.703125 L 133.171875 -70.703125 C 136.410156 -70.703125 138.835938 -71.757812 140.453125 -73.875 C 142.078125 -76 142.890625 -78.554688 142.890625 -81.546875 C 142.890625 -85.785156 142.078125 -88.898438 140.453125 -90.890625 C 138.835938 -92.890625 136.410156 -94.015625 133.171875 -94.265625 L 77.0625 -102.125 C 59.601562 -104.613281 45.570312 -110.347656 34.96875 -119.328125 C 24.375 -128.304688 19.078125 -143.269531 19.078125 -164.21875 L 19.078125 -203.484375 C 19.078125 -224.679688 25.929688 -240.953125 39.640625 -252.296875 C 53.359375 -263.648438 72.316406 -269.328125 96.515625 -269.328125 L 201.25 -269.328125 C 205.988281 -269.328125 209.414062 -268.265625 211.53125 -266.140625 C 213.65625 -264.023438 214.71875 -260.597656 214.71875 -255.859375 L 214.71875 -211.34375 C 214.71875 -206.601562 213.65625 -203.171875 211.53125 -201.046875 C 209.414062 -198.929688 205.988281 -197.875 201.25 -197.875 L 114.09375 -197.875 C 110.84375 -197.875 108.34375 -196.8125 106.59375 -194.6875 C 104.851562 -192.570312 103.984375 -189.894531 103.984375 -186.65625 C 103.984375 -183.414062 104.851562 -180.671875 106.59375 -178.421875 C 108.34375 -176.179688 110.84375 -174.9375 114.09375 -174.6875 L 169.828125 -167.203125 C 187.285156 -164.710938 201.375 -158.976562 212.09375 -150 C 222.8125 -141.019531 228.171875 -126.054688 228.171875 -105.109375 L 228.171875 -65.828125 C 228.171875 -44.640625 221.25 -28.367188 207.40625 -17.015625 C 193.570312 -5.671875 174.6875 0 150.75 0 Z M 150.75 0 "/></g></g></g></svg>